<?xml version="1.0" ?><!DOCTYPE svg  PUBLIC '-//W3C//DTD SVG 1.1//EN'  'http://www.w3.org/Graphics/SVG/1.1/DTD/svg11.dtd'><svg enable-background="new 0 0 512 512" height="512px" id="Surgeon_1_" version="1.1" viewBox="0 0 512 512" width="512px" xml:space="preserve" xmlns="http://www.w3.org/2000/svg" xmlns:xlink="http://www.w3.org/1999/xlink"><g><path d="M440.238,433.405c-1.576-23.507-9.609-45.184-22.621-61.037c-14.756-17.979-34.776-27.483-57.897-27.483   c-1.277,0-4.715-0.433-13.834-2.495c-3.322-0.752-6.771-1.573-9.997-2.342l-8.574-2.006l-4.82-0.963   c-0.333-0.051-0.644-0.094-0.91-0.125l-3.754-0.439l-2.427,2.896c-0.01,0.012-0.55,0.656-1.52,1.789   c-16.813-6.552-17.996-18.833-18.547-40.456l23.786-20.269l0.924-10.19c4.882-8.878,9.066-19.153,12.475-30.627   c10.823-0.803,19.409-10.91,19.409-23.218c0-6.335-2.232-12.217-6.136-16.524l0.362-2.922c2.166-13.208,3.039-24.142,3.389-30.38   c0.35-0.29,0.683-0.607,0.998-0.95c4.268-4.645,4.268-13.751,3.853-18.972c-0.123-40.444-25.846-98.689-72.269-98.689h-51.684   c-46.422,0-72.146,58.246-72.268,98.689c-0.415,5.221-0.416,14.327,3.852,18.972c0.292,0.318,0.601,0.614,0.923,0.887   c0.346,6.226,1.218,17.188,3.393,30.446l0.361,2.919c-3.903,4.307-6.135,10.188-6.135,16.524c0,12.308,8.585,22.415,19.409,23.218   c3.408,11.474,7.592,21.749,12.475,30.627l0.925,10.191l23.65,20.152c-0.553,21.812-1.725,34.173-18.877,40.7   c-0.796-0.922-1.235-1.441-1.243-1.451l-2.424-2.869l-3.73,0.434c-0.277,0.032-0.597,0.077-0.999,0.141l-13.219,2.928   c-1.476,0.351-3,0.713-4.583,1.085l-5.271,1.219c-9.493,2.146-13.083,2.597-14.423,2.597c-23.066,0-43.042,9.365-57.767,27.083   c-13.017,15.661-21.088,37.159-22.729,60.534l-0.229,3.266l2.359,2.27c5.593,5.38,11.552,10.612,17.751,15.589l2.689,2.155   c0.481,0.377,0.968,0.747,1.454,1.116l1.873,1.432c1.302,0.985,2.614,1.956,3.941,2.923l0.751,0.552   c3.189,2.303,6.48,4.568,9.772,6.728l1.082,0.699c1.27,0.823,2.545,1.64,3.827,2.44c0.371,0.231,0.744,0.461,1.117,0.69   l0.416,0.255c1.153,0.709,2.311,1.411,3.475,2.103c0.558,0.332,1.118,0.662,1.681,0.99c1.151,0.673,2.308,1.335,3.472,1.991   l0.403,0.228c0.418,0.236,0.837,0.473,1.258,0.706c1.242,0.688,2.493,1.364,3.759,2.04l1.399,0.749   c1.695,0.891,3.4,1.767,5.06,2.593l0.224,0.112c1.671,0.831,3.448,1.688,5.291,2.554l1.278,0.586   c1.339,0.62,2.682,1.232,4.044,1.836c0.465,0.205,0.933,0.406,1.399,0.608l0.426,0.184c1.189,0.516,2.381,1.024,3.584,1.525   c0.667,0.276,1.334,0.549,2.003,0.82c1.168,0.475,2.34,0.94,3.526,1.401l0.285,0.111c0.579,0.225,1.157,0.449,1.731,0.667   c1.226,0.466,2.458,0.918,3.686,1.363l0.541,0.197c0.447,0.164,0.894,0.327,1.334,0.482c1.477,0.522,2.961,1.028,4.445,1.524   l1.145,0.388c1.858,0.61,3.765,1.213,5.667,1.791c0.281,0.086,0.564,0.168,0.846,0.249l0.478,0.14   c1.453,0.433,2.909,0.858,4.371,1.266c0.471,0.131,0.944,0.258,1.417,0.385l0.606,0.164c1.244,0.336,2.49,0.667,3.742,0.985   c0.741,0.188,1.484,0.371,2.226,0.553c1.207,0.297,2.416,0.584,3.623,0.861c0.756,0.175,1.514,0.347,2.276,0.516   c1.24,0.273,2.485,0.535,3.737,0.793l0.586,0.121c0.524,0.108,1.049,0.217,1.572,0.318c1.403,0.276,2.812,0.535,4.227,0.789   l0.629,0.116c0.356,0.066,0.712,0.133,1.061,0.192c1.997,0.346,3.998,0.669,5.964,0.963l1.014,0.142   c1.653,0.239,3.31,0.468,4.971,0.677c0.487,0.062,0.976,0.117,1.465,0.174l0.62,0.071c1.321,0.155,2.644,0.307,3.969,0.442   c0.631,0.064,1.264,0.124,1.897,0.184l0.456,0.043c1.256,0.117,2.515,0.227,3.783,0.327c0.803,0.063,1.607,0.123,2.409,0.179   c1.275,0.09,2.554,0.167,3.833,0.237l0.521,0.029c0.609,0.034,1.217,0.068,1.825,0.096c1.384,0.064,2.772,0.111,4.17,0.155   l0.748,0.024c0.419,0.015,0.839,0.029,1.266,0.039c2.235,0.052,4.261,0.076,6.194,0.076c1.977,0,4.001-0.025,6.18-0.076   c0.43-0.01,0.858-0.024,1.287-0.039l0.733-0.024c1.388-0.042,2.774-0.09,4.153-0.154c0.611-0.027,1.222-0.062,1.831-0.096   l0.523-0.029c1.27-0.07,2.538-0.146,3.799-0.234c0.816-0.057,1.63-0.117,2.439-0.182c1.248-0.099,2.493-0.207,3.762-0.324   c0.788-0.073,1.576-0.147,2.362-0.228c1.293-0.133,2.581-0.278,3.871-0.43l0.659-0.076c0.508-0.059,1.017-0.117,1.523-0.181   c1.538-0.193,3.069-0.405,4.594-0.624l0.516-0.071c0.295-0.04,0.59-0.08,0.878-0.124c1.974-0.294,3.962-0.614,5.902-0.949   c0.345-0.06,0.688-0.123,1.031-0.187l0.669-0.123c1.403-0.252,2.805-0.509,4.199-0.782c0.554-0.108,1.104-0.223,1.655-0.337   l0.579-0.12c1.214-0.248,2.427-0.502,3.628-0.767c0.778-0.171,1.553-0.349,2.384-0.539c1.157-0.267,2.312-0.54,3.468-0.821   c0.796-0.194,1.59-0.392,2.38-0.593c1.166-0.296,2.327-0.604,3.482-0.914l0.432-0.116c0.613-0.164,1.228-0.329,1.849-0.501   c1.264-0.354,2.521-0.721,3.772-1.091l0.66-0.191c0.417-0.121,0.833-0.242,1.252-0.369c1.855-0.563,3.703-1.145,5.541-1.746   c0.25-0.082,0.498-0.167,0.747-0.253l0.483-0.164c1.449-0.483,2.894-0.973,4.326-1.479c0.482-0.171,0.963-0.346,1.443-0.521   l0.671-0.245c1.137-0.412,2.273-0.827,3.402-1.255c0.676-0.255,1.349-0.517,2.021-0.779l0.277-0.107   c1.061-0.414,2.12-0.832,3.18-1.261c0.775-0.313,1.549-0.631,2.328-0.954c1.044-0.435,2.083-0.877,3.117-1.322   c0.758-0.326,1.517-0.653,2.274-0.988c1.086-0.48,2.164-0.972,3.234-1.463l0.588-0.269c0.496-0.226,0.993-0.452,1.486-0.684   c1.34-0.629,2.67-1.272,3.982-1.917l0.45-0.217c0.27-0.129,0.54-0.259,0.804-0.39c1.699-0.845,3.387-1.708,5.059-2.585   c0.425-0.223,0.847-0.449,1.269-0.677l0.613-0.329c1.08-0.578,2.16-1.157,3.23-1.749c0.623-0.344,1.242-0.694,1.862-1.045   l0.253-0.144c0.98-0.553,1.959-1.11,2.937-1.678c0.724-0.421,1.442-0.847,2.161-1.274c0.954-0.566,1.9-1.139,2.853-1.72   c0.708-0.434,1.415-0.867,2.125-1.311c0.967-0.605,1.927-1.219,2.888-1.837l0.554-0.355c0.476-0.305,0.951-0.609,1.431-0.924   c1.087-0.714,2.164-1.439,3.241-2.169l0.567-0.382c0.326-0.218,0.652-0.437,0.973-0.657c1.56-1.071,3.107-2.159,4.639-3.262   c0.271-0.195,0.539-0.394,0.808-0.592l0.527-0.389c1.109-0.81,2.217-1.622,3.311-2.446c0.425-0.32,0.847-0.645,1.269-0.969   l1.185-0.907c0.43-0.326,0.858-0.653,1.284-0.985l2.689-2.12v-0.029c6.056-4.86,11.889-9.973,17.378-15.231l2.36-2.262   L440.238,433.405z" fill="#231F20"/><path d="M349.912,353.184c-74.442,0-57.834-36.507-62.884-73.06h-61.694c-5.05,36.553,11.558,73.06-62.884,73.06   c-47.574,0-63.807,20.847-63.807,66.709v30.9C142.084,484.754,196.767,505,256.181,505c59.415,0,114.097-20.245,157.538-54.207   v-30.9C413.719,374.03,397.485,353.184,349.912,353.184z" fill="#FFD0AE"/><path d="M288.299,301.324c-0.162-6.264-0.377-12.73-1.271-19.2h-61.694c-0.89,6.439-1.107,12.877-1.269,19.114   c8.926,5.721,19.539,9.159,32.184,9.159C268.831,310.397,279.4,306.993,288.299,301.324z" opacity="0.1"/><ellipse cx="181.369" cy="216.44" fill="#FFD0AE" rx="13.799" ry="16.269"/><ellipse cx="331.132" cy="216.44" fill="#FFD0AE" rx="13.799" ry="16.269"/><path d="M320.902,121.642c-14.134-18.039-32.221-27.973-50.93-27.973h-27.445c-18.708,0-36.795,9.935-50.929,27.973   c-12.784,16.316-20.417,37.416-20.416,56.542c0.022,1.33,0.661,32.948,10.96,65.115c14.151,44.195,39.776,67.555,74.106,67.555   s59.956-23.36,74.106-67.555c10.3-32.167,10.938-63.785,10.961-65.115l0.001-0.1C341.318,159.058,333.687,137.958,320.902,121.642z   " fill="#231F20"/><path d="M269.973,99.669h-27.445c-36.089,0-65.345,42.325-65.345,78.415c0,0,2.113,126.77,79.068,126.77   s79.068-126.77,79.068-126.77C335.318,141.994,306.063,99.669,269.973,99.669z" fill="#FFD0AE"/><path d="M359.72,351.885c-7.124,0-33.399-7.341-38.95-7.979c0,0-46.838,55.958-64.588,55.958   c-17.75,0-64.621-55.469-64.621-55.469c-5.636,0.664-32.031,8.016-39.302,8.016c-44.667,0-70.52,38.45-73.513,81.107   C124.763,477.78,187.291,505,256.181,505c68.709,0,131.091-27.072,177.073-71.127C430.381,391.019,404.511,351.885,359.72,351.885z   " fill="#55AEB8"/><path d="M345.886,342.39c-3.313-0.75-6.757-1.57-9.977-2.338c-7.297-1.738-11.893-2.818-14.341-3.1l-3.746-0.43   l-2.42,2.891c-0.116,0.138-11.729,13.978-25.293,27.595c-25.032,25.131-33.092,25.856-33.928,25.856   c-0.838,0-8.916-0.72-33.967-25.635c-13.571-13.498-25.191-27.216-25.307-27.353l-2.429-2.873l-3.736,0.439   c-2.448,0.288-7.012,1.358-14.254,3.079c-3.22,0.765-6.669,1.585-9.998,2.336l-9.205,2.076l4.658,8.207   c16.294,28.71,69.05,78.171,94.318,78.171c25.191,0,77.879-49.768,94.178-78.656l4.622-8.192L345.886,342.39z" fill="#231F20"/><path d="M256.26,424.313c21.453,0,72.516-47.508,88.082-75.096c-9.591-2.169-20.264-4.931-23.572-5.311   c0,0-46.838,55.958-64.588,55.958c-17.75,0-64.621-55.469-64.621-55.469c-3.333,0.393-13.926,3.124-23.531,5.291   C183.481,376.911,234.76,424.313,256.26,424.313z" fill="#D1D3D4"/><path d="M325.762,100.345c-15.162-19.352-34.517-30.009-54.496-30.009h-30.031   c-19.98,0-39.333,10.657-54.496,30.009c-13.78,17.587-22.007,40.314-22.006,60.878c0.013,0.742,0.355,18.45,4.627,41.416   l0.281,1.513l20.466,20.641l-1.951-14.725c-1.79-13.506-1.972-31.845-1.973-31.984c0-31.172,21.076-63.415,56.345-63.415h27.445   c31.62,0,57.346,28.448,57.346,63.371c-0.001,0.184-0.182,18.508-1.974,32.028l-2.16,16.307l19.705-22.381l0.252-1.355   c4.271-22.965,4.613-40.673,4.627-41.5C347.769,140.659,339.542,117.932,325.762,100.345z" fill="#231F20"/><path d="M181.182,178.083c0-36.089,25.256-68.415,61.345-68.415h27.445c36.09,0,62.346,32.325,62.346,68.415   c0,0-0.164,18.659-2.017,32.641l7.924-9c4.243-22.818,4.543-40.586,4.543-40.586c0-39.49-32.013-85.803-71.503-85.803h-30.031   c-39.49,0-71.502,46.313-71.502,85.803c0,0,0.299,17.768,4.543,40.586l8.924,9C181.346,196.743,181.182,178.083,181.182,178.083z" fill="#805959"/><polygon fill="#231F20" points="315.231,220.188 257.037,211.984 255.776,211.94 197.269,220.188 166.75,179.946 169.671,203.519    191.419,231.229 195.775,279.234 231.888,310.007 280.612,310.007 316.725,279.234 321.081,231.229 342.829,203.52    345.755,179.942  "/><polygon fill="#FFFFFF" points="317.114,225.153 317.128,225 256.409,216.44 256.091,216.44 195.372,225 195.386,225.153    173.273,195.994 173.983,201.725 195.735,229.439 195.772,229.411 200.091,277 233.545,305.507 278.955,305.507 312.409,277    316.728,229.411 316.765,229.439 338.518,201.725 339.229,195.994  "/><path d="M354.396,146.691c-0.123-40.444-25.846-98.689-72.269-98.689h-51.684   c-46.422,0-72.146,58.245-72.268,98.689c-0.415,5.221-0.416,14.328,3.852,18.973c1.859,2.023,4.36,3.137,7.042,3.137h174.434   c2.682,0,5.183-1.114,7.041-3.137C354.813,161.019,354.812,151.912,354.396,146.691z" fill="#231F20"/><path d="M347.396,146.984c0-37.731-23.698-91.981-65.269-91.981h-25.842h-25.842   c-41.569,0-65.268,54.25-65.268,91.981c0,0-1.257,14.817,3.894,14.817c2.586,0,44.901,0,87.217,0s84.631,0,87.217,0   C348.653,161.801,347.396,146.984,347.396,146.984z" fill="#55AEB8"/><path d="M347.396,146.984c0-37.731-23.698-91.981-65.269-91.981h-25.842h-25.842   c-41.569,0-65.268,54.25-65.268,91.981c0,0-1.257,14.817,3.894,14.817c2.586,0,44.901,0,87.217,0s84.631,0,87.217,0   C348.653,161.801,347.396,146.984,347.396,146.984z" fill="#55AEB8"/><path d="M347.396,146.984c0-37.731-23.698-91.981-65.269-91.981h-25.842h-25.842   c-41.569,0-65.268,54.25-65.268,91.981c0,0-1.257,14.817,3.894,14.817c2.586,0,44.901,0,87.217,0s84.631,0,87.217,0   C348.653,161.801,347.396,146.984,347.396,146.984z" fill="#55AEB8"/></g></svg>